# xmcd
#
# Track frame offsets:
#   225
#   15527
#   27882
#   49685
#   65770
#   81345
#   99320
#   114345
#   128475
#   147452
#   170097
#   190365
#   207615
#   224657
#   238942
#   262392
#   278867
#   293407
#   306232
#
# Disc length: 4280 seconds
#
# Revision: 0
# Processed by: cddbd v1.5.2PL0 Copyright (c) Steve Scherf et al.
# Submitted via: GXTranscoder 2.0.1939
#
DISCID=2d10b513
DTITLE=Weselmy - Album
DYEAR=1900
DGENRE=Folk
TTITLE0=Nad pielnym modrym Dunajem
TTITLE1=La Cumpersita
TTITLE2=Zloty krazek
TTITLE3=Serduszko puka w rytmie Cha Cha
TTITLE4=Cala sala spiewa z nami
TTITLE5=Bialy mis
TTITLE6=Powiadali przyjaciele
TTITLE7=Beata z Albatrosa
TTITLE8=Do zakochania jeden krok
TTITLE9=Madley
TTITLE10=Jak sie masz kochanie
TTITLE11=20 Lat a moze mniej
TTITLE12=Jambolaya
TTITLE13=Maly kwiatek
TTITLE14=4 razy po dwa razy
TTITLE15=Pamelo zegnaj
TTITLE16=Nie placz kiedy pdjade
TTITLE17=Ozen sie ozen
TTITLE18=Pogratulujme mlodej parze
EXTD=
EXTT0=
EXTT1=
EXTT2=
EXTT3=
EXTT4=
EXTT5=
EXTT6=
EXTT7=
EXTT8=
EXTT9=
EXTT10=
EXTT11=
EXTT12=
EXTT13=
EXTT14=
EXTT15=
EXTT16=
EXTT17=
EXTT18=
PLAYORDER=
